<svg xmlns="http://www.w3.org/2000/svg" width="19" height="17" viewBox="0 0 19 17" fill="none">
<path d="M9.5 14.0367L5.35 16.5367C5.16667 16.6534 4.975 16.7034 4.775 16.6867C4.575 16.6701 4.4 16.6034 4.25 16.4867C4.1 16.3701 3.98333 16.2284 3.9 16.0617C3.81667 15.8784 3.8 15.6784 3.85 15.4617L4.95 10.7367L1.275 7.56172C1.10833 7.41172 1 7.24505 0.95 7.06172C0.916667 6.86172 0.933334 6.67005 1 6.48672C1.06667 6.30338 1.16667 6.15338 1.3 6.03672C1.43333 5.92005 1.61667 5.84505 1.85 5.81172L6.7 5.38672L8.575 0.936718C8.65833 0.736718 8.78333 0.586718 8.95 0.486718C9.13333 0.386718 9.31667 0.336718 9.5 0.336718C9.68333 0.336718 9.85833 0.386718 10.025 0.486718C10.2083 0.586718 10.3417 0.736718 10.425 0.936718L12.3 5.38672L17.15 5.81172C17.3833 5.84505 17.5667 5.92005 17.7 6.03672C17.8333 6.15338 17.9333 6.30338 18 6.48672C18.0667 6.67005 18.075 6.86172 18.025 7.06172C17.9917 7.24505 17.8917 7.41172 17.725 7.56172L14.05 10.7367L15.15 15.4617C15.2 15.6784 15.1833 15.8784 15.1 16.0617C15.0167 16.2284 14.9 16.3701 14.75 16.4867C14.6 16.6034 14.425 16.6701 14.225 16.6867C14.025 16.7034 13.8333 16.6534 13.65 16.5367L9.5 14.0367Z" fill="#15a279"/>
</svg>