<svg width="82" height="80" viewBox="0 0 104 102" fill="none" xmlns="http://www.w3.org/2000/svg" style="color: #F84436">
                                    <path d="M19.8402 38.5982L84.8399 38.2916M17.8836 40.5152L50.5429 82.465C50.7803 82.7714 51.085 83.0191 51.4334 83.1889C51.7818 83.3588 52.1647 83.4461 52.5523 83.4443C52.9399 83.4425 53.3219 83.3515 53.6687 83.1784C54.0155 83.0053 54.3178 82.7547 54.5523 82.4461L86.8145 40.1902C87.1317 39.7731 87.3145 39.2694 87.3385 38.7459C87.3626 38.2225 87.2267 37.7042 86.9491 37.2598L75.8544 19.5384C75.626 19.1717 75.3076 18.8694 74.9295 18.6603C74.5514 18.4513 74.1261 18.3423 73.694 18.3439L30.7974 18.5462C30.3653 18.5487 29.9411 18.6617 29.565 18.8743C29.1888 19.0869 28.8733 19.3922 28.6484 19.761L17.7213 37.5863C17.4479 38.0333 17.3169 38.5529 17.3459 39.0761C17.3749 39.5992 17.5624 40.1012 17.8836 40.5152Z" stroke="currentColor" stroke-width="4" stroke-linecap="round" stroke-linejoin="round"/>
                                    <path d="M74.7574 20.8389L67.34 38.3741M67.34 38.3741L52.2458 18.445L37.3403 38.5156M67.34 38.3741L52.5406 80.9443L37.3403 38.5156M29.7579 21.0511L37.3403 38.5156" stroke="currentColor" stroke-width="4" stroke-linecap="round" stroke-linejoin="round"/>
                                </svg>