<svg width="18" height="12" viewBox="0 0 18 12" fill="none" xmlns="http://www.w3.org/2000/svg">
<path d="M1 12C0.716667 12 0.475 11.9083 0.275 11.725C0.0916667 11.525 0 11.2833 0 11C0 10.7167 0.0916667 10.4833 0.275 10.3C0.475 10.1 0.716667 10 1 10H17C17.2833 10 17.5167 10.1 17.7 10.3C17.9 10.4833 18 10.7167 18 11C18 11.2833 17.9 11.525 17.7 11.725C17.5167 11.9083 17.2833 12 17 12H1ZM1 7C0.716667 7 0.475 6.90833 0.275 6.725C0.0916667 6.525 0 6.28333 0 6C0 5.71667 0.0916667 5.48333 0.275 5.3C0.475 5.1 0.716667 5 1 5H17C17.2833 5 17.5167 5.1 17.7 5.3C17.9 5.48333 18 5.71667 18 6C18 6.28333 17.9 6.525 17.7 6.725C17.5167 6.90833 17.2833 7 17 7H1ZM1 2C0.716667 2 0.475 1.90833 0.275 1.725C0.0916667 1.525 0 1.28333 0 0.999999C0 0.716665 0.0916667 0.483332 0.275 0.3C0.475 0.099999 0.716667 -1.43051e-06 1 -1.43051e-06H17C17.2833 -1.43051e-06 17.5167 0.099999 17.7 0.3C17.9 0.483332 18 0.716665 18 0.999999C18 1.28333 17.9 1.525 17.7 1.725C17.5167 1.90833 17.2833 2 17 2H1Z" fill="#888E9B"/>
</svg>
