<svg xmlns="http://www.w3.org/2000/svg" viewBox="0 0 190.39 61.65"><path d="M5.75,36.84l10.38,6,10.65-6.15-6.67-3.86-9.54-5.5L1.42,32.6a10.89,10.89,0,0,0,3.72,3.88Z" transform="translate(-0.1 -0.75)" style="fill:#ff5671;fill-rule:evenodd"/><path d="M20.11,21.81,35.55,12.9V.6L5.81,17.77l-.72.41a10.77,10.77,0,0,0-5,9.14A10.71,10.71,0,0,0,1.42,32.6l9.15-5.28Z" transform="translate(-0.04 -0.6)" style="fill:#ff5671;fill-rule:evenodd"/><path d="M25.93,41,10.49,49.94V62.25L40.23,45.08l.72-.42a10.83,10.83,0,0,0,3.67-3.85,10.81,10.81,0,0,0,0-10.57l-9.15,5.29Z" transform="translate(-0.04 -0.6)" style="fill:#ff5671;fill-rule:evenodd"/><path d="M40.29,26,29.91,20,19.26,26.17,25.94,30l9.53,5.51,9.15-5.29a10.81,10.81,0,0,0-3.72-3.88Z" transform="translate(-0.04 -0.5)" style="fill:#ff5671;fill-rule:evenodd"/><path d="M78.16,20.85a4.86,4.86,0,0,0-2.07-3.59A8,8,0,0,0,71.36,16a9,9,0,0,0-3.5.61,5.21,5.21,0,0,0-2.24,1.67,4.05,4.05,0,0,0-.79,2.42,3.55,3.55,0,0,0,.52,1.95A4.49,4.49,0,0,0,66.76,24a10.18,10.18,0,0,0,2,1,19.85,19.85,0,0,0,2.21.65l3.38.85a23.76,23.76,0,0,1,3.93,1.28,14.11,14.11,0,0,1,3.4,2.05,9.2,9.2,0,0,1,2.39,3,9.09,9.09,0,0,1,.88,4.09,9.73,9.73,0,0,1-1.62,5.57,10.66,10.66,0,0,1-4.68,3.75,18.24,18.24,0,0,1-7.39,1.35A18.65,18.65,0,0,1,64,46.25a10.8,10.8,0,0,1-4.83-3.81,11.21,11.21,0,0,1-1.88-6.09h6.43a5.48,5.48,0,0,0,1.16,3.13,6.08,6.08,0,0,0,2.67,1.87A10.5,10.5,0,0,0,71.2,42a10.21,10.21,0,0,0,3.74-.64,5.94,5.94,0,0,0,2.53-1.8,4.29,4.29,0,0,0,.93-2.7,3.49,3.49,0,0,0-.82-2.34,6.35,6.35,0,0,0-2.27-1.55,24,24,0,0,0-3.39-1.12l-4.1-1.05a16.34,16.34,0,0,1-7-3.48,8,8,0,0,1-2.58-6.21,9.25,9.25,0,0,1,1.73-5.58,11.32,11.32,0,0,1,4.73-3.72,16.44,16.44,0,0,1,6.78-1.33,15.91,15.91,0,0,1,6.73,1.33,11.07,11.07,0,0,1,4.56,3.68,9.38,9.38,0,0,1,1.7,5.39Z" transform="translate(-0.04 -0.6)" style="fill:#fff"/><path d="M94.27,57.15a12.84,12.84,0,0,1-2.4-.21,9.39,9.39,0,0,1-1.75-.46l1.48-5a8.56,8.56,0,0,0,2.48.39A3.11,3.11,0,0,0,96,51.22,5,5,0,0,0,97.43,49L98,47.57,88.16,20h6.77l6.23,20.42h.28L107.69,20h6.78L103.64,50.28a12.29,12.29,0,0,1-2,3.69,8.41,8.41,0,0,1-3.06,2.36A10.45,10.45,0,0,1,94.27,57.15Z" transform="translate(-0.04 -0.6)" style="fill:#fff"/><path d="M118.18,47V20h6.18v4.5h.28a6.82,6.82,0,0,1,2.55-3.62,7,7,0,0,1,4.13-1.27c.35,0,.75,0,1.19,0s.8.08,1.1.13v5.87a6.8,6.8,0,0,0-1.28-.26,14.06,14.06,0,0,0-1.68-.11,6.47,6.47,0,0,0-3.13.75,5.54,5.54,0,0,0-2.17,2.07,5.77,5.77,0,0,0-.79,3V47Z" transform="translate(-0.04 -0.6)" style="fill:#fff"/><path d="M148.81,47.53a13.14,13.14,0,0,1-6.87-1.74,11.74,11.74,0,0,1-4.5-4.88,16,16,0,0,1-1.59-7.33,16.1,16.1,0,0,1,1.59-7.34,11.7,11.7,0,0,1,4.5-4.89,14.34,14.34,0,0,1,13.73,0,11.7,11.7,0,0,1,4.5,4.89,16,16,0,0,1,1.6,7.34,15.87,15.87,0,0,1-1.6,7.33,11.74,11.74,0,0,1-4.5,4.88A13.07,13.07,0,0,1,148.81,47.53Zm0-5.1a5.47,5.47,0,0,0,3.59-1.19,7.06,7.06,0,0,0,2.16-3.2,13.18,13.18,0,0,0,.71-4.47,13.28,13.28,0,0,0-.71-4.5,7.07,7.07,0,0,0-2.16-3.22,5.47,5.47,0,0,0-3.59-1.19,5.58,5.58,0,0,0-3.65,1.19A7.17,7.17,0,0,0,143,29.07a14.52,14.52,0,0,0,0,9,7.16,7.16,0,0,0,2.17,3.2A5.58,5.58,0,0,0,148.84,42.43Z" transform="translate(-0.04 -0.6)" style="fill:#fff"/><path d="M173.06,31.16V47h-6.37V20h6.09v4.59h.32a7.75,7.75,0,0,1,3-3.61,9.15,9.15,0,0,1,5.08-1.34,9.63,9.63,0,0,1,4.89,1.2,8.13,8.13,0,0,1,3.24,3.47,11.91,11.91,0,0,1,1.14,5.51V47h-6.38V30.77a6,6,0,0,0-1.4-4.25A5,5,0,0,0,178.79,25a6,6,0,0,0-3,.73,5.16,5.16,0,0,0-2,2.11A7.06,7.06,0,0,0,173.06,31.16Z" transform="translate(-0.04 -0.6)" style="fill:#fff"/></svg>